<?xml version="1.0" encoding="UTF-8"?>
<svg viewBox="0 0 800 800" xmlns="http://www.w3.org/2000/svg">
 <path d="m365.01 467.44c6.5895 0 7.281-0.45779 19.282 15.023 7.0253 9.0586 22.219 28.382 30.277 39.992l120.7-0.4452c15.039-0.67883 16.7-2.4091 22.923-6.8769 11.376-8.1651 21.992-21.973 46.904-61.033 7.5242-11.799 17.132-26.69 21.347-33.08 6.4033-10.29 4.0635-11.954 20.972-15.326-12.244 30.362-27.902 66.136-38.385 82.036-20.624 31.281-53.48 64.816-118.58 85.734 50.639-8.7776 66.676-24.192 100.41-51.728-22.92 47.32-54.879 90.094-84.433 133.29 66.426-70.663 130.12-148.99 164.14-240.95 5.8949-18.023 12.589-42.733 11.802-43.516-12.513 14.013-27.725 29.566-60.007 30.311-48.839 1.1272-86.45-13.779-121.72-40.437-3.7131 2.709-8.2314 5.074-8.3135 10.606-0.075806 5.1908 5.6202 10.915 16.763 17.208 18.3 10.334 65.264 22.544 86.694 22.544 2.7122 0 4.9256 0.2558 4.9256 0.58099 0 0.32837-12.592 16.336-27.984 35.546-23.627 29.481-28.619 35.126-32.023 36.298-7.8967 2.7217-52.025 0.92511-75.744-3.0785-11.373-1.9197-16.456-4.0289-22.544-9.3744-11.032-11.259-19.421-25.162-30.687-35.887-12.491 4.714-25.762 9.6144-46.733 9.8543-16.365 0.18314-31.641-4.2278-46.732-9.8543-11.265 10.726-19.655 24.628-30.687 35.887-6.0885 5.3456-11.171 7.4547-22.545 9.3744-23.719 4.0036-67.845 5.8002-75.743 3.0785-3.4037-1.1714-8.3962-6.8169-32.022-36.298-15.394-19.21-27.985-35.218-27.985-35.546 0-0.3252 2.213-0.58099 4.9265-0.58099 21.427 0 68.392-12.21 86.691-22.544 11.144-6.2928 16.839-12.017 16.763-17.208-0.080841-5.5318-4.5979-7.8967-8.3132-10.606-35.271 26.658-72.883 41.564-121.72 40.437-32.281-0.74515-47.492-16.299-60.006-30.311-0.78433 0.78305 5.9073 25.493 11.803 43.516 34.027 91.96 97.721 170.29 164.14 240.95-29.552-43.194-61.51-85.968-84.433-133.29 33.735 27.536 49.773 42.951 100.41 51.728-65.097-20.918-97.951-54.453-118.58-85.734-10.484-15.901-26.139-51.674-38.385-82.036 16.908 3.3721 14.568 5.0361 20.972 15.326 4.2142 6.3907 13.821 21.281 21.347 33.08 24.912 39.061 35.527 52.868 46.903 61.033 6.2236 4.4678 7.8825 6.1981 22.922 6.8769l120.7 0.4452c8.0578-11.61 23.251-30.933 30.277-39.992 12.001-15.481 12.718-15.023 19.308-15.023zm-201.55-460.92c-42.142 0.42032-80.334 24.204-99.588 87.786 34.167-18.089 78.246-17.713 116.08-4.7213 50.445 17.323 93.597 57.057 130.89 108.83-4.1492-30.044-16.638-61.23-24.598-77.351 7.3559 1.1957 17.73 4.7822 22.306-0.85534 4.9417-6.0878 1.0568-12.273-3.8318-17.379-39.473-41.233-92.702-68.087-150.26-70.372 37.183-1.7202 84.044 4.4479 125.73 21.108-34.082-27.214-77.14-47.435-116.73-47.04v-1e-5zm403.08 0c-39.588-0.39486-82.649 19.827-116.73 47.04 41.681-16.66 88.544-22.829 125.73-21.108-57.554 2.2854-110.78 29.139-150.26 70.372-4.8878 5.1065-8.7713 11.291-3.83 17.379 4.5752 5.6376 14.95 2.051 22.304 0.85534-7.9599 16.121-20.448 47.308-24.596 77.351 37.296-51.769 80.448-91.503 130.89-108.83 37.832-12.991 81.91-13.368 116.08 4.7213-19.257-63.581-57.446-87.365-99.589-87.786zm-378.72 152.31c-18.856 0.18628-34.665 2.9844-46.596 8.1765-23.562 10.253-38.022 49.592-59.151 51.658-18.981 1.8562-29.902-24.457-37.94-38.453 5.021 15.873 13.454 32.197 24.119 43.688-10.895 6.9328-22.554 13.933-30.516 24.153 14.139-9.6541 28.281-19.183 41.635-17.653-15.746 8.6485-38.01 20.675-48.785 40.232 18.739-18.428 41.384-35.177 68.662-33.698 7.8797 0.42723 10.245 1.0786 19.774 5.6108 24.081 13.8 50.429 14.142 77.078 13.856v-16.319c-18.945-0.047989-37.853-2.3725-56.414-6.0894-7.8039-1.9841-21.237-8.3625-23.948-11.358-1.8439-2.0372-1.8196-2.3709 0.54686-7.9712 6.1406-14.529 16.106-26.118 28.601-33.937 15.281-9.5626 33.453-11.311 51.043-10.811 0.056198 0.001266 0.11494-0.001892 0.17113 0v-10.947c-0.089371-0.003159-0.26048-0.031906-0.34228-0.034103-1.4-0.038208-2.7697-0.090927-4.1394-0.10262-1.2841-0.009476-2.5404-0.012634-3.7974 0zm350.56 0c-1.3671 0.012619-2.7375 0.064728-4.1393 0.10262-0.082092 0.002197-0.25256 0.03157-0.341 0.034103v10.947c0.056763-0.002197 0.11365 9.61e-4 0.17053 0 17.59-0.50044 35.761 1.2478 51.043 10.811 12.494 7.8191 22.462 19.408 28.6 33.937 2.368 5.6003 2.3902 5.9341 0.54944 7.9712-2.7123 2.9958-16.144 9.3741-23.949 11.358-18.563 3.7169-37.469 6.0414-56.414 6.0894v16.319c26.649 0.28574 52.994-0.054932 77.076-13.856 9.529-4.5322 11.894-5.1832 19.775-5.6105 27.277-1.4786 49.922 15.27 68.662 33.698-10.776-19.557-33.039-31.584-48.785-40.232 13.356-1.5298 27.495 7.9984 41.637 17.653-7.9631-10.22-19.623-17.221-30.516-24.153 10.663-11.491 19.096-27.814 24.116-43.688-8.0358 13.996-18.957 40.309-37.94 38.453-21.126-2.0659-35.587-41.405-59.151-51.659-11.929-5.1918-27.738-7.9902-46.594-8.1765-1.2566-0.012329-2.5133-0.009491-3.7983 0v3.05e-4zm-330.14 1.6422v10.64c28.484 4.5129 61.087 20.721 68.593 35.819-22.189-15.429-47.88-27.916-75.299-27.506-17.8 0.26617-40.044 4.8164-57.406 14.437-8.7622 4.8555-21.146 15.749-21.348 19.124-0.79251 13.26 58.586 20.52 79.917 19.603 24.982-1.0644 50.158-2.2361 72.39-13.137-12.66 17.158-42.587 19.67-66.848 20.39v16.25c38.068-2.1546 84.84-19.392 84.672-41.703-0.25638-34.164-57.725-49.366-84.672-53.917zm313.51 0c-26.946 4.5502-84.414 19.752-84.67 53.917-0.1673 22.311 46.604 39.549 84.67 41.703v-16.25c-24.262-0.71991-54.188-3.2313-66.846-20.39 22.232 10.901 47.406 12.073 72.39 13.137 21.332 0.91695 80.707-6.3433 79.918-19.603-0.20203-3.375-12.589-14.269-21.35-19.124-17.36-9.6207-39.604-14.171-57.405-14.437-27.419-0.41016-53.108 12.076-75.298 27.506 7.5052-15.098 40.109-31.306 68.592-35.819v-10.64zm-199.18 17.687c-0.1152 66.398-10.459 112.72-52.548 163.67-9.3363 11.3-20.405 23.573-20.903 39.001-0.37451 11.597 5.0516 22.092 12.042 32.158-4.0836-9.8859-6.7923-19.551-5.6449-30.311 1.0075-9.447 7.6426-16.049 26.993-35.101 18.616-18.329 22.119-22.699 25.487-19.055 1.4897 1.6103 1.2677 10.906-0.82126 27.779-3.0087 24.303-1.9667 40.952 3.2158 51.214 5.3218 10.536 19.331 19.14 38.384 23.605 4.111 0.96304 10.028 1.2314 16.217 1.2314 6.1885 0 12.106-0.26837 16.217-1.2314 19.052-4.4646 33.061-13.069 38.385-23.605 5.1814-10.262 6.2233-26.911 3.2144-51.214-2.0871-16.873-2.3113-26.169-0.82095-27.779 3.3689-3.6437 6.8737 0.7262 25.487 19.055 19.352 19.052 25.986 25.654 26.993 35.101 1.1493 10.76-1.5597 20.425-5.6423 30.311 6.9905-10.066 12.415-20.561 12.042-32.158-0.49884-15.427-11.569-27.7-20.905-39.001-42.088-50.951-52.432-97.269-52.546-163.67-7.2937 34.87-6.2675 86.997-4.9288 131.92 0.84616 28.355 3.0943 46.936 6.0908 64.113 2.8384 16.28 2.4249 28.666-3.2838 33.32-10.821 8.8219-25.929 11.995-40.302 12.008-14.372 0.012695-29.474-3.1511-40.3-12.008-5.7027-4.6635-6.1232-17.041-3.2844-33.32 2.9951-17.176 5.2441-35.758 6.0897-64.113 1.3394-44.921 2.3656-97.048-4.9265-131.92zm-35.408 233.05c-1.5629 0.05365-3.0305 0.27783-4.3449 0.68515-2.4751 0.76727-2.692 4.6288 0.41074 8.724 3.5347 4.1993 7.3094 6.2012 15.463 8.2094 7.9804 1.967 12.378 2.0365 12.898-0.51154 1.9613-9.6302-13.486-17.48-24.427-17.107zm155.66 0c-10.94-0.37256-26.39 7.4768-24.426 17.107 0.51779 2.5481 4.9161 2.4786 12.895 0.51154 8.1556-2.0082 11.929-4.01 15.465-8.2094 3.1037-4.0952 2.8858-7.9567 0.41043-8.724-1.3135-0.40732-2.7817-0.6315-4.3447-0.68515zm-164.21 115.7c-1.7824 1.6198-4.5123 3.1353-3.1132 5.3361 1.5222 2.3933 16.521 6.0685 37.701 7.0821 34.426 1.6482 69.161 2.2765 103.59 0 21.17-1.4019 36.181-4.6888 37.703-7.0821 1.3987-2.2008-1.3325-3.7163-3.1132-5.3361h-172.77zm43.346 65.615c13.184 15.478 20.731 23.542 20.664 35.341-0.12588 22.124-9.7107 24.751-8.7239 59.972 0.79251 28.281 5.3735 46.711 8.0056 64.658 6.2631 42.71 13.576 43.38 23.092 43.38 9.5165 0 16.829-0.66937 23.094-43.38 2.6302-17.947 7.2116-36.377 8.0041-64.658 0.98822-35.221-8.5978-37.848-8.724-59.972-0.066315-11.799 7.48-19.863 20.665-35.341h-86.076z" fill="#aa0505"/>
</svg>
